<?xml version="1.0" standalone="no"?><!DOCTYPE svg PUBLIC "-//W3C//DTD SVG 1.1//EN" "http://www.w3.org/Graphics/SVG/1.1/DTD/svg11.dtd"><svg t="1699000180987" class="icon" viewBox="0 0 1024 1024" version="1.1" xmlns="http://www.w3.org/2000/svg" p-id="1469" xmlns:xlink="http://www.w3.org/1999/xlink" width="200" height="200"><path d="M862.397108 394.543971v-27.601901c0-30.461612-24.717616-55.203801-55.203802-55.203801H448.368599v-27.6019c0-30.461612-24.717616-55.203801-55.203801-55.203801H255.155295c-30.486186 0-55.203801 24.742189-55.203802 55.203801v110.407602h662.445615zM199.952517 422.145872V753.368679c0 30.510759 24.717616 55.203801 55.203801 55.203801H807.193306c30.486186 0 55.203801-24.693042 55.203802-55.203801V422.145872H199.952517z" fill="#98C4D8" p-id="1470"></path><path d="M834.795207 366.94207v-27.6019c0-30.461612-24.717616-55.203801-55.203801-55.203801H420.766698v-27.601901c0-30.461612-24.717616-55.203801-55.203801-55.203801h-138.009503c-30.486186 0-55.203801 24.742189-55.203801 55.203801v110.407602h662.445614zM172.350617 394.543971V725.766778c0 30.510759 24.717616 55.203801 55.203801 55.203801h552.036988c30.486186 0 55.203801-24.693042 55.203801-55.203801V394.543971H172.350617z" fill="#EFD9A0" p-id="1471"></path><path d="M291.424368 359.897931a24.832291 52.769002 55.515 1 0 86.99228-59.754611 24.832291 52.769002 55.515 1 0-86.99228 59.754611Z" fill="#FEFEFE" p-id="1472"></path><path d="M238.100646 446.738537a16.555202 28.970835 55.515 1 0 47.759839-32.806021 16.555202 28.970835 55.515 1 0-47.759839 32.806021Z" fill="#FEFEFE" p-id="1473"></path></svg>